<?xml version="1.0" encoding="utf-8"?>
<svg viewBox="0 0 3040 1064" xmlns="http://www.w3.org/2000/svg">
  <g transform="matrix(0.1, 0, 0, -0.1, 0, 1064)" fill="#000000" stroke="none">
    <rect x="1280.41" y="-9226.09" width="28161.13" height="7998.91" style="fill: rgb(255, 255, 255);" transform="matrix(1, 0, 0, -1, 0, 0)"/>
    <path d="M0 5320 l0 -5320 15200 0 15200 0 0 5320 0 5320 -15200 0 -15200 0 0 -5320z m5663 3305 c525 -56 1069 -247 1477 -520 270 -180 610 -501 860 -811 225 -280 444 -742 549 -1159 114 -451 132 -957 51 -1400 -79 -429 -260 -887 -488 -1234 -125 -190 -364 -460 -586 -660 -305 -275 -524 -418 -871 -566 -452 -193 -851 -275 -1335 -275 -755 0 -1474 248 -2042 704 -228 184 -522 491 -675 706 -485 683 -690 1551 -567 2400 82 564 356 1190 693 1580 486 562 914 864 1519 1071 244 83 482 136 732 164 161 18 516 18 683 0z m5984 -1160 c20 -8 80 -59 135 -112 l98 -97 0 -246 0 -247 -157 -6 c-87 -4 -194 -7 -239 -7 l-80 0 -31 128 -30 127 -532 3 -531 2 0 -695 0 -695 538 2 537 3 3 192 2 193 -282 2 -283 3 0 235 0 235 540 0 540 0 3 -555 2 -555 -112 -112 -113 -113 -835 0 c-459 0 -840 4 -845 8 -6 4 -56 55 -113 114 l-102 108 0 935 0 936 108 114 107 114 818 1 c708 0 822 -2 854 -15z m2511 -217 l-3 -233 -742 -3 -743 -2 0 -230 0 -230 680 0 680 0 0 -235 0 -235 -680 0 -680 0 0 -230 0 -230 745 0 745 0 -2 -232 -3 -233 -1002 -3 -1003 -2 0 1165 0 1165 1005 0 1005 0 -2 -232z m2270 113 l112 -119 0 -929 0 -928 -117 -117 -116 -118 -837 0 -837 0 -111 119 -112 119 0 925 0 926 107 111 c59 62 116 116 128 120 11 5 391 9 845 9 l825 1 113 -119z m2389 7 l113 -113 0 -242 c0 -133 -4 -244 -8 -247 -4 -2 -111 -8 -238 -12 l-231 -7 -27 119 c-15 65 -29 125 -31 132 -3 9 -119 12 -535 12 l-530 0 0 -695 0 -695 538 2 537 3 3 192 2 193 -282 2 -283 3 0 235 0 235 540 0 540 0 3 -555 2 -555 -112 -112 -113 -113 -836 0 -836 0 -80 83 c-44 45 -96 100 -114 121 l-34 39 -4 586 c-2 322 0 739 4 927 l7 340 107 112 c58 61 115 113 126 115 11 3 389 5 840 6 l820 1 112 -112z m905 -815 l3 -928 538 -3 537 -2 0 930 0 930 260 0 260 0 1 -472 c1 -260 0 -734 -1 -1053 l-1 -580 -112 -112 -112 -113 -836 0 -836 0 -111 119 -112 119 0 1046 0 1046 260 0 260 0 2 -927z m3878 692 l0 -235 -745 0 -745 0 2 -227 3 -228 683 -3 682 -2 -2 -233 -3 -232 -683 -3 -682 -2 2 -228 3 -227 743 -3 742 -2 0 -235 0 -235 -1002 2 -1003 3 -3 1163 -2 1162 1005 0 1005 0 0 -235z m2267 123 l113 -113 0 -246 0 -246 -231 -8 c-127 -4 -233 -4 -237 0 -4 3 -21 61 -38 128 l-30 122 -532 3 -532 2 0 -230 0 -230 687 0 688 0 112 -112 113 -113 0 -475 0 -475 -112 -112 -113 -113 -836 0 -837 0 -111 117 -111 117 2 245 3 246 248 3 c193 2 248 0 252 -10 2 -7 7 -66 10 -130 l7 -118 539 0 539 0 0 230 0 230 -695 0 -696 0 -103 83 -103 82 -6 312 c-4 172 -4 397 0 500 l6 188 102 109 c56 61 112 113 126 117 13 4 393 7 844 8 l820 1 112 -112z m2396 -6 l117 -117 0 -599 0 -598 -100 -95 c-89 -85 -100 -99 -100 -130 0 -31 11 -45 100 -130 l100 -95 0 -224 0 -224 -255 0 -254 0 -5 33 c-2 17 -11 75 -19 127 l-15 95 -208 203 -207 202 -323 0 -324 0 0 -330 0 -330 -260 0 -260 0 0 1165 0 1165 948 0 947 0 118 -118z m-17493 -2821 c139 -37 217 -71 333 -149 47 -31 66 -50 62 -60 -3 -8 -17 -56 -31 -106 -47 -169 -91 -257 -134 -271 -13 -4 -53 16 -126 66 -138 92 -193 117 -279 125 -241 21 -494 -158 -520 -369 -15 -118 39 -263 126 -341 92 -82 221 -129 397 -142 l92 -7 0 33 0 33 -142 -4 -141 -4 -73 200 c-41 110 -74 203 -74 208 0 4 201 6 448 5 l447 -3 3 -327 2 -327 -88 -59 c-166 -111 -331 -158 -547 -156 -162 1 -244 19 -378 82 -349 165 -539 525 -473 901 30 173 95 300 220 430 140 145 288 220 526 265 57 11 277 -3 350 -23z m2740 -356 c70 -203 200 -575 289 -825 88 -250 161 -458 161 -462 0 -4 -85 -8 -188 -8 -175 0 -191 2 -232 23 -25 12 -58 41 -75 64 l-30 41 -170 4 c-93 1 -241 2 -327 0 l-157 -2 -23 -41 c-12 -22 -38 -50 -58 -62 -33 -21 -47 -22 -238 -22 -178 -1 -203 1 -199 15 2 8 91 258 196 555 106 297 233 659 282 805 49 146 91 271 94 278 3 10 64 12 276 10 l271 -3 128 -370z m1941 355 c5 -8 68 -141 140 -295 241 -512 230 -492 240 -470 5 11 36 85 70 165 33 80 113 252 177 383 l116 237 200 -2 201 -3 0 -830 0 -830 -212 -3 -213 -2 -2 313 -3 314 -90 -190 -89 -190 -160 8 c-87 3 -164 9 -170 11 -21 8 -76 112 -126 237 l-49 122 -3 -310 -3 -310 -210 0 -210 0 -3 820 c-1 451 0 826 3 833 7 20 385 13 396 -8z m3663 4 c8 -20 8 -358 0 -378 -5 -14 -58 -16 -485 -16 l-479 0 0 -160 0 -160 390 0 390 0 -2 -202 -3 -203 -388 -3 -388 -2 3 -62 3 -62 410 2 c226 1 442 -2 480 -6 l70 -7 0 -195 0 -195 -695 0 -695 0 -3 820 c-1 451 0 826 3 833 3 9 151 12 694 12 619 0 689 -2 695 -16z" style="fill: rgb(142, 40, 0);"/>
    <path d="M5003 8162 c-256 -131 -464 -333 -642 -625 -44 -72 -157 -292 -163 -317 -4 -16 44 -27 297 -69 205 -35 408 -58 540 -63 l90 -3 3 440 c3 481 -3 685 -22 685 -6 0 -53 -22 -103 -48z" style="fill: rgb(142, 40, 0);"/>
    <path d="M5525 8023 c-8 -181 -2 -930 7 -939 6 -6 252 14 393 31 145 19 517 85 527 94 10 9 -125 276 -196 386 -127 197 -283 362 -453 476 -76 52 -239 139 -259 139 -8 0 -14 -54 -19 -187z" style="fill: rgb(142, 40, 0);"/>
    <path d="M4086 7959 c-222 -123 -711 -444 -706 -464 1 -5 66 -33 144 -61 77 -29 170 -63 206 -77 l65 -25 81 157 c84 162 165 296 266 440 33 45 58 85 56 86 -2 2 -52 -23 -112 -56z" style="fill: rgb(142, 40, 0);"/>
    <path d="M6465 7994 c187 -277 251 -384 340 -565 l48 -95 201 73 c110 41 208 76 216 79 21 8 -8 30 -245 188 -200 133 -350 225 -500 306 l-79 44 19 -30z" style="fill: rgb(142, 40, 0);"/>
    <path d="M7385 7109 c-93 -38 -221 -90 -283 -116 -87 -35 -112 -50 -109 -62 3 -9 25 -86 50 -172 47 -161 95 -385 122 -569 21 -140 55 -507 55 -598 l0 -72 508 2 507 3 -3 35 c-20 225 -97 565 -178 786 -61 165 -183 410 -274 548 -95 146 -201 286 -214 286 -6 -1 -87 -32 -181 -71z" style="fill: rgb(142, 40, 0);"/>
    <path d="M3059 7152 c-8 -10 -53 -70 -100 -133 -284 -379 -470 -864 -532 -1391 l-13 -108 507 0 507 0 7 123 c26 477 86 842 197 1201 25 81 28 100 17 107 -24 15 -516 209 -547 215 -21 4 -32 1 -43 -14z" style="fill: rgb(142, 40, 0);"/>
    <path d="M4001 6658 c-87 -368 -141 -707 -166 -1055 l-5 -83 650 0 650 0 0 478 c0 262 -3 521 -7 574 l-6 96 -61 7 c-269 28 -653 85 -880 131 -65 13 -122 24 -126 24 -4 0 -26 -78 -49 -172z" style="fill: rgb(142, 40, 0);"/>
    <path d="M6565 6825 c-66 -26 -912 -154 -1021 -155 -15 0 -29 -700 -19 -960 l7 -190 644 0 c607 0 644 1 644 18 0 9 -7 96 -15 192 -27 305 -74 588 -157 933 -40 169 -44 177 -83 162z" style="fill: rgb(142, 40, 0);"/>
    <path d="M2414 5093 c3 -16 12 -82 21 -147 67 -500 240 -937 523 -1324 51 -70 100 -136 107 -146 14 -19 24 -16 297 94 156 62 286 116 290 119 4 4 -13 76 -38 161 -99 339 -153 687 -180 1153 l-6 117 -510 0 -510 0 6 -27z" style="fill: rgb(142, 40, 0);"/>
    <path d="M3830 5098 c1 -133 51 -535 100 -803 29 -156 102 -471 113 -481 2 -3 63 6 133 20 268 52 581 99 880 131 l61 7 6 96 c4 53 7 312 7 575 l0 477 -650 0 -650 0 0 -22z" style="fill: rgb(142, 40, 0);"/>
    <path d="M5525 4924 c-8 -222 3 -954 15 -954 27 0 309 -34 456 -55 144 -21 445 -73 581 -101 30 -6 32 -4 42 32 61 233 123 543 150 744 20 146 51 458 51 508 l0 22 -644 0 -644 0 -7 -196z" style="fill: rgb(142, 40, 0);"/>
    <path d="M7220 5053 c0 -336 -95 -931 -204 -1278 -14 -44 -22 -82 -18 -86 23 -19 574 -231 581 -223 90 102 257 360 347 537 115 226 191 441 248 702 28 126 67 395 59 408 -2 4 -231 7 -509 7 l-504 0 0 -67z" style="fill: rgb(142, 40, 0);"/>
    <path d="M4995 3548 c-161 -12 -401 -44 -556 -72 -204 -38 -239 -47 -239 -58 0 -21 147 -293 212 -393 163 -253 356 -434 572 -539 150 -73 133 -96 141 186 9 330 3 881 -10 883 -5 1 -59 -2 -120 -7z" style="fill: rgb(142, 40, 0);"/>
    <path d="M5530 2993 c0 -310 2 -563 4 -563 2 0 36 13 76 30 235 97 452 290 624 557 92 142 226 396 215 407 -8 9 -193 46 -349 71 -142 22 -368 48 -512 58 l-58 4 0 -564z" style="fill: rgb(142, 40, 0);"/>
    <path d="M3573 3222 c-112 -41 -203 -78 -203 -81 2 -26 784 -521 824 -521 3 0 -21 37 -53 83 -86 120 -181 279 -266 448 -42 82 -81 149 -88 148 -7 0 -103 -35 -214 -77z" style="fill: rgb(142, 40, 0);"/>
    <path d="M6771 3142 c-93 -183 -184 -337 -265 -446 -31 -42 -53 -76 -50 -76 41 0 823 494 824 521 0 5 -407 159 -422 159 -4 0 -43 -71 -87 -158z" style="fill: rgb(142, 40, 0);"/>
    <path d="M14930 6315 l0 -695 543 2 542 3 3 693 2 692 -545 0 -545 0 0 -695z" style="fill: rgb(142, 40, 0);"/>
    <path d="M26770 6650 l0 -360 545 0 545 0 0 360 0 360 -545 0 -545 0 0 -360z" style="fill: rgb(142, 40, 0);"/>
    <path d="M13097 3980 c-15 -35 -187 -538 -187 -546 0 -2 90 -4 200 -4 110 0 200 4 200 8 0 5 -45 137 -99 293 l-99 284 -15 -35z" style="fill: rgb(142, 40, 0);"/>
  </g>
</svg>